<svg width="122" height="121" viewBox="0 0 122 121" fill="none" xmlns="http://www.w3.org/2000/svg">
    <g id="html">
        <path d="M22.4108 102.679L13.8786 8.17542H107.63L99.0866 102.664L60.6975 113.175L22.4108 102.679Z" fill="#E44F26"/>
        <path d="M60.7544 105.143L91.7771 96.6492L99.0752 15.9042H60.7544V105.143Z" fill="#F1662A"/>
        <path d="M60.7544 50.9517H45.224L44.1533 39.0829H60.7544V27.4917H31.3265L31.6075 30.6042L34.4895 62.5429H60.7544V50.9517ZM60.7544 81.0529L60.7012 81.0679L47.6314 77.5842L46.7961 68.3405H35.0135L36.6577 86.5354L60.7012 93.1279L60.7544 93.113V81.0529Z" fill="#EBEBEB"/>
        <path d="M60.7126 50.9517V62.5429H75.1646L73.8052 77.5767L60.7126 81.0642V93.1242L84.7752 86.5355L84.9499 84.578L87.7066 54.0642L87.9952 50.9517H60.7126ZM60.7126 27.4917V39.0829H89.0622L89.2976 36.4805L89.833 30.6042L90.114 27.4917H60.7126Z" fill="white"/>
    </g>
    <g id="css">
        <path d="M23.2398 101.829L14.7114 8.11292H108.455L99.9156 101.814L61.5264 112.238L23.2398 101.829Z" fill="#1572B6"/>
        <path d="M61.5834 104.272L92.6061 95.8494L99.9042 15.7772H61.5834V104.272Z" fill="#33A9DC"/>
        <path d="M61.5834 49.7295H77.1137L78.1845 37.9596H61.5834V26.465H91.0113L90.7303 29.5478L87.8483 61.2241H61.5834V49.7295Z" fill="white"/>
        <path d="M61.6555 79.5799L61.6024 79.5948L48.5326 76.1363L47.6972 66.9696H35.9147L37.5588 85.0167L61.5986 91.5543L61.6555 91.5394V79.5799Z" fill="#EBEBEB"/>
        <path d="M76.1151 60.7369L74.7025 76.1289L61.6138 79.5873V91.5468L85.6725 85.0167L85.851 83.0755L87.8901 60.7369H76.1151Z" fill="white"/>
        <path d="M61.6251 26.465V37.9596H33.2756L33.0402 35.3751L32.5048 29.5478L32.2238 26.465H61.6251ZM61.5834 49.7295V61.2241H48.6769L48.4414 58.6396L47.9098 52.8123L47.6289 49.7295H61.5834Z" fill="#EBEBEB"/>
    </g>

    <g id="github">
        <g id="akar-icons:github-fill" clip-path="url(#clip0_319_446)">
        <path id="Vector" fill-rule="evenodd" clip-rule="evenodd" d="M45.4468 0.675415C20.8311 0.675415 0.893555 20.3654 0.893555 44.6754C0.893555 64.1454 13.6469 80.5904 31.3568 86.4204C33.5845 86.8054 34.4199 85.4854 34.4199 84.3304C34.4199 83.2854 34.3642 79.8204 34.3642 76.1354C23.1702 78.1704 20.2742 73.4404 19.3831 70.9654C18.8819 69.7004 16.7099 65.7954 14.8164 64.7504C13.2571 63.9254 11.0294 61.8904 14.7607 61.8354C18.2693 61.7804 20.7754 65.0254 21.6108 66.3454C25.6206 73.0004 32.0251 71.1304 34.5869 69.9754C34.9768 67.1154 36.1463 65.1904 37.4272 64.0904C27.5141 62.9904 17.1555 59.1954 17.1555 42.3654C17.1555 37.5804 18.8819 33.6204 21.7222 30.5404C21.2767 29.4404 19.7173 24.9304 22.1677 18.8804C22.1677 18.8804 25.8991 17.7254 34.4199 23.3904C37.9841 22.4004 41.7711 21.9054 45.5582 21.9054C49.3452 21.9054 53.1322 22.4004 56.6965 23.3904C65.2173 17.6704 68.9486 18.8804 68.9486 18.8804C71.399 24.9304 69.8397 29.4404 69.3941 30.5404C72.2344 33.6204 73.9608 37.5254 73.9608 42.3654C73.9608 59.2504 63.5465 62.9904 53.6334 64.0904C55.2485 65.4654 56.6408 68.1054 56.6408 72.2304C56.6408 78.1154 56.5851 82.8454 56.5851 84.3304C56.5851 85.4854 57.4205 86.8604 59.6481 86.4204C68.4926 83.4714 76.178 77.8576 81.6227 70.3691C87.0675 62.8806 89.9973 53.8945 90 44.6754C90 20.3654 70.0624 0.675415 45.4468 0.675415Z" fill="black"/>
        </g>
        <defs>
        <clipPath id="clip0_319_446">
        <rect width="89.1065" height="88" fill="white" transform="translate(0.893555 0.675415)"/>
        </clipPath>
        </defs>
    </g>

    <g id="greensock">
    <g id="cib:greensock" clip-path="url(#clip0_319_478)">
        <path id="Vector" d="M68.5733 120.42C66.9899 120.147 65.3495 119.404 64.4192 118.583C63.7877 117.928 63.4273 117.064 63.4091 116.16C63.4091 115.242 63.8838 113.952 64.6356 112.665C65.0913 111.942 65.4482 111.162 65.7026 110.34C65.8621 109.774 66.1963 108.855 66.4545 108.27L66.9101 107.198L67.0278 100.032C67.0886 96.0679 67.2063 92.3966 67.305 91.8266C67.5632 90.1841 67.9961 88.5829 68.5695 87.0229L69.0061 85.9879L68.372 85.6166C67.7987 85.2641 67.324 84.7766 65.4444 82.5679C63.132 79.8716 60.0866 78.3866 55.7731 77.8804C54.3681 77.7454 52.9442 77.6441 51.5203 77.5879C45.1904 77.2954 41.5717 75.9866 38.31 72.8216C35.876 70.4591 34.6116 67.7029 34.0989 63.6416C33.4079 58.1516 32.637 55.3391 31.2131 53.0554C30.8622 52.4914 30.4579 51.9615 30.0056 51.4729L29.4323 50.9066L28.1678 51.7091C27.4767 52.1591 26.5046 52.7254 26.03 52.9804C24.4466 53.8391 22.9429 54.7954 21.5 55.8304C17.9611 58.3691 14.1032 61.5529 11.9881 63.6416C11.0389 64.5791 10.5452 64.9879 10.325 64.9504C8.88207 64.7366 9.98704 58.5641 12.3413 53.9141C15.3486 47.9179 20.4102 42.3904 26.2654 38.6591C31.0726 35.5916 38.8454 31.3729 42.4413 29.8879C48.8281 27.2516 57.0945 24.3979 62.7522 22.8754C63.9408 22.5416 64.6698 22.2491 65.1634 21.9191C66.2722 21.1579 67.3582 20.7866 68.6037 20.7679C69.6517 20.7491 69.7504 20.7304 70.7604 20.0629C71.9489 19.3016 72.3021 19.2604 73.4906 19.6729L74.2614 19.9466L75.2107 19.3016L76.16 18.6754L77.5232 18.6941C78.5712 18.7129 79.0458 18.6754 79.5015 18.4804C80.0748 18.2254 80.0938 18.1879 80.2533 17.2504C80.6102 15.2179 80.6482 14.2016 80.4318 12.9716C80.1546 11.3516 80.1166 5.06286 80.3938 3.82911C80.69 2.50161 80.8874 2.22786 81.8975 1.74036C83.4011 1.01661 84.5289 0.802856 87.1186 0.802856C90.2816 0.802856 91.884 1.23411 93.0725 2.36661C94.1395 3.38286 94.318 5.76411 93.7636 11.3516C93.4256 14.5729 93.3876 15.4729 93.4864 17.5804C93.5243 18.9266 93.6231 20.1979 93.6648 20.3741C93.7446 20.7079 93.8243 20.7266 94.9711 20.7454C96.0988 20.7641 96.2963 20.8241 97.3633 21.3716C98.3923 21.9004 99.1631 22.5454 99.3226 23.0141C99.3416 23.1116 99.5201 23.1116 99.8352 23.0141C100.447 22.8379 100.982 23.0329 101.419 23.5616C101.677 23.8954 101.833 23.9516 102.429 23.9516C103.241 23.9516 103.537 24.1466 104.21 25.1254C104.524 25.5646 104.955 25.9098 105.455 26.1229C106.564 26.6704 108.067 28.1929 108.641 29.4041C109.529 31.2004 109.708 33.2891 109.153 35.1641C108.956 35.8691 108.956 35.8879 109.37 36.5704C110.239 38.0366 110.558 39.8329 110.201 41.3554L110.004 42.2554L110.596 42.8404C113.543 45.7504 113.106 50.4979 109.51 54.7354C109.108 55.2194 108.769 55.751 108.5 56.3179C107.809 58.1329 107.016 59.4041 105.99 60.4579L104.942 61.5116H103.875C102.808 61.5116 101.305 61.1591 100.393 60.6904C100.017 60.4954 99.9985 60.4954 100.078 60.7279C100.317 61.5866 100.91 65.0816 101.107 67.0166C101.422 69.9866 101.324 74.3029 100.91 76.1591C100.607 77.5339 100.101 78.857 99.4061 80.0854C99.0112 80.7116 98.9922 80.8466 99.0682 81.6079C99.1859 82.6804 98.9315 84.4804 98.4948 85.6691C97.9594 87.0566 97.762 87.7016 97.6443 88.4029C97.5455 89.0066 97.5455 89.0066 97.9822 89.0066C98.5556 89.0066 98.8707 89.3404 98.8707 90.0041C98.8707 90.2966 98.6125 91.8791 98.2974 93.4991C97.4278 98.0516 97.3671 98.5579 97.3671 102.972C97.3481 107.524 97.3481 107.483 98.3961 108.165L100.75 109.669C102.776 110.997 104.945 112.097 107.217 112.95C110.52 114.24 110.976 114.57 110.976 115.665C110.976 116.153 110.877 116.329 110.463 116.719C109.199 117.93 106.704 118.204 101.681 117.675C99.0702 117.434 96.45 117.31 93.8281 117.304C86.9059 117.207 85.8959 116.97 84.9884 115.272C84.4757 114.297 84.5745 113.025 85.2845 110.937C85.5997 110.018 85.8769 109.08 86.1161 108.124C86.5908 105.859 86.2756 103.163 85.1668 100.118L84.2175 97.5191C83.2872 94.8829 82.7746 90.0566 83.329 88.9654C83.4277 88.7516 83.6062 88.7104 84.0808 88.7291L84.6732 88.7891L85.1668 87.7729C85.5427 86.9704 85.9566 86.4454 87.0844 85.3316L88.5273 83.9066L88.4476 82.9879C88.3868 82.1104 87.2211 77.8504 87.0616 77.8691C87.0008 77.8691 86.6857 78.3004 86.3287 78.8441C85.4592 80.1341 83.5416 82.1254 82.4519 82.8491C81.9772 83.1604 81.5823 83.5316 81.5823 83.6516C81.5633 84.1804 81.1077 85.2154 80.5533 85.9354C80.0179 86.6404 79.9799 86.7566 80.0597 87.3791C80.1964 88.2979 79.9002 91.2454 79.547 92.7904C79.2269 93.9376 78.7893 95.0496 78.2408 96.1091C76.8776 98.9029 75.8486 101.4 75.5904 102.555C75.4039 103.667 75.2847 104.789 75.2335 105.915C75.1727 107.243 75.036 108.533 74.9373 108.807C74.8006 109.178 74.8006 109.47 74.9183 110.037C75.017 110.445 75.0778 111.364 75.055 112.088C75.036 113.085 75.1158 113.73 75.4119 114.9C75.9246 116.892 76.0233 118.144 75.7879 118.887C75.6284 119.355 75.4727 119.532 74.9373 119.787C73.7488 120.39 70.3883 120.724 68.5695 120.413L68.5733 120.42ZM73.3767 118.819C74.0677 118.624 74.6639 118.039 74.6639 117.51C74.6639 117.274 74.4664 116.592 74.2272 115.988C73.7526 114.837 72.94 111.788 72.94 111.282C72.94 111.027 72.959 111.008 73.3539 111.222L73.7906 111.458V110.91C73.7272 110.406 73.614 109.908 73.4526 109.425C73.0767 108.312 73.0387 108.293 70.6427 108.154L69.0213 108.075L68.429 108.642C68.1033 108.973 67.8178 109.34 67.5784 109.737C67.3202 110.243 67.2215 111.008 67.381 111.18C67.4189 111.24 67.8176 111.18 68.2505 111.083C68.5075 111.007 68.7726 110.962 69.0403 110.948C69.0403 110.967 68.6036 111.319 68.0531 111.69C65.6798 113.449 64.8483 114.522 64.8483 115.89C64.8483 117.315 66.2114 118.429 68.3492 118.763C69.8111 118.977 72.659 119.037 73.3729 118.823L73.3767 118.819ZM105.554 116.494C106.146 115.789 106.066 115.069 105.314 114.248C104.878 113.817 104.384 113.445 103.83 113.153C103.275 112.86 102.721 112.527 102.167 112.178C101.164 111.536 100.134 110.937 99.0796 110.382C98.1683 109.894 97.2797 109.384 96.4102 108.84L96.0533 108.567V103.197C96.0533 97.9054 96.0343 97.8266 95.7571 97.9054C94.3711 98.2766 92.0776 98.4529 89.1728 98.3929L86.0288 98.3554L86.4844 99.4504C87.335 101.52 87.7717 104.295 87.7717 107.479C87.7717 108.672 87.6919 109.099 87.3957 109.939C87.2363 110.348 87.0996 110.76 86.9591 111.169C86.8983 111.345 87.1186 111.48 87.9274 111.717C88.5197 111.893 89.3893 112.069 89.8867 112.125L90.798 112.223L90.6993 113.123C90.6005 114.139 90.7183 115.212 90.9765 115.545C91.1359 115.74 91.7283 115.819 94.4774 115.935C96.5545 116.033 98.81 116.247 100.587 116.502C102.129 116.738 103.792 116.933 104.285 116.933C105.117 116.952 105.197 116.914 105.55 116.502L105.554 116.494ZM73.8931 107.355C73.9728 107.295 74.0905 106.242 74.1323 104.993C74.2918 101.498 74.4285 100.988 76.2093 97.0429C77.6712 93.8216 78.4459 90.8141 78.3851 88.6841L78.3471 87.4129L77.7928 87.9416C76.646 89.0741 77.4358 87.2966 78.8028 85.7141C79.8318 84.5029 80.1888 83.8391 80.3444 82.7666C80.4242 82.3354 80.5837 82.1216 81.2558 81.6154C83.7705 79.7393 85.7081 77.2103 86.8528 74.3104C87.1299 73.6054 87.84 71.2054 88.4362 68.9779C89.5449 64.8566 90.1373 63.0791 90.6727 62.3179C90.8701 62.0254 90.9499 61.9654 90.9119 62.1604C90.6251 63.2077 90.4007 64.2708 90.2398 65.3441C90.0803 66.3004 89.7841 68.1754 89.5867 69.4841C89.2108 72.1616 88.8159 73.8791 88.2805 75.2066L87.9236 76.1066L88.8728 78.5291C89.8601 81.0079 90.3158 82.8079 90.3955 84.5441L90.4562 85.5191L89.6854 85.6766C88.6681 85.8544 87.7602 86.415 87.1527 87.2404C86.4806 88.1966 86.1047 88.9804 86.2832 89.1529C86.3629 89.2316 87.3312 89.4079 88.44 89.5429C90.1601 89.7379 90.8132 89.7379 93.0877 89.6029C94.0749 89.5654 95.047 89.4679 96.0153 89.3291C96.2317 89.2504 96.452 88.8229 96.8051 87.7091C97.6177 85.1516 97.7734 84.2516 97.6746 82.4554L97.5949 80.8729L98.0088 80.3441C98.9771 79.1329 99.7289 76.9466 100.044 74.3854C100.42 71.2616 99.7289 64.7179 98.4417 59.0929C97.8303 56.4154 97.5721 54.8141 97.5721 53.6441V52.6091L96.6038 52.7066C93.1219 53.0779 88.9108 52.9804 86.3401 52.4516C84.9352 52.1779 81.3963 51.1429 80.6254 50.8091L80.0141 50.5354L79.9343 51.2179C79.8736 51.5891 79.8166 51.9604 79.7369 52.3504C79.6192 52.7591 79.6572 52.8566 80.39 53.5616C81.3013 54.4804 81.5785 54.9491 81.5785 55.5716C81.5785 55.9616 81.3621 56.2766 80.2533 57.4091C79.4583 58.2469 78.5763 58.9998 77.6219 59.6554L76.3346 60.5141L75.7803 62.4079C73.8019 69.3416 73.426 75.6491 74.7323 80.1604L75.0474 81.2929L74.4133 82.0729C72.0401 85.0204 70.6351 87.2666 70.4187 88.5191C70.2922 89.1359 70.1465 89.7487 69.982 90.3566C69.4694 92.2916 69.0707 95.1229 68.896 98.1904C68.7743 100.758 68.6034 103.324 68.3834 105.885L68.2847 106.647L69.272 106.939C69.8263 107.115 70.6579 107.31 71.1326 107.389C72.0211 107.524 73.6653 107.487 73.9197 107.352L73.8931 107.355ZM93.0953 96.6116C94.6369 96.5141 96.0419 96.2779 96.3191 96.0454C96.4368 95.9666 96.5773 95.5579 96.6152 95.1454L96.714 94.4029L95.4875 94.6766C94.5192 94.8716 93.5509 94.9879 92.5789 95.0666C90.2436 95.1641 87.8932 95.1041 85.5769 94.8716C84.8061 94.7554 84.8061 94.7554 85.0415 95.7491C85.239 96.4916 85.2807 96.5291 87.297 96.6679C88.6412 96.7841 90.5208 96.7654 93.0915 96.6079L93.0953 96.6116ZM91.808 93.2141C93.8243 93.0379 96.338 92.6104 96.8317 92.3554C96.9911 92.2766 97.1278 91.9841 97.1886 91.6504L97.3671 90.6154L97.4658 90.1279L96.9722 90.2254C94.7774 90.6754 93.1143 90.8104 89.7917 90.8104C86.549 90.8104 86.1731 90.7916 85.3225 90.4991C84.9956 90.363 84.6476 90.2831 84.2935 90.2629C84.1568 90.3416 84.134 91.4554 84.2555 92.2354C84.3352 92.7041 84.415 92.7829 84.8896 92.9179C86.3933 93.3266 88.926 93.4241 91.8118 93.1916L91.808 93.2141ZM55.1048 75.5966C60.1664 74.1529 66.7924 69.9116 72.2109 64.6016C73.9728 62.8616 74.1893 62.6291 74.4247 61.8491L74.7398 60.8516C74.7778 60.7729 74.4627 60.6379 74.0488 60.5404C72.9628 60.2854 72.1312 59.6629 72.1312 59.0966C72.1312 58.7629 71.9338 58.4329 71.3604 57.8254C70.4301 56.7904 70.1947 56.3404 70.0959 55.3466L70.0162 54.5441L68.9074 53.7641C68.2733 53.3141 66.0596 52.1029 63.7053 50.9329C61.9128 50.0692 60.1582 49.1309 58.4463 48.1204C56.468 46.8116 55.1428 45.2479 54.3909 43.3954C54.2542 43.0241 54.0758 42.7129 54.015 42.7129C53.8555 42.7129 49.4053 46.9504 47.5067 48.9416C42.821 53.8241 39.5972 58.0616 37.5581 61.9879C37.0455 62.9629 36.4911 64.1179 36.3317 64.5454L36.0355 65.3254L36.3924 66.6341C36.6089 67.3391 37.0645 68.4904 37.4215 69.1729C38.6669 71.5954 40.1516 73.0579 42.6046 74.2504C45.236 75.5404 47.5674 75.9904 51.4633 75.9304C53.5593 75.9116 54.1745 75.8516 55.101 75.5779L55.1048 75.5966ZM15.155 58.4666C18.4775 55.5566 23.0644 52.3729 28.6842 49.0729C32.3636 46.9054 46.584 39.8741 53.1303 37.0016C54.3188 36.4729 55.3858 35.9854 55.5035 35.9291C55.6212 35.8504 55.9591 35.0104 56.2743 34.0729C57.6603 29.7379 58.3513 28.8791 60.8613 28.3129C61.1764 28.2341 61.2562 28.1366 61.2562 27.8254C61.2562 27.2591 61.6511 25.9504 61.989 25.3654C62.2472 24.9154 62.2472 24.8966 62.027 24.9566C61.8903 24.9941 61.0587 25.2304 60.1892 25.4854C48.1256 28.9241 37.5847 33.4916 28.4868 39.1954C18.7774 45.2891 13.1804 52.5941 11.5591 61.3429L11.4414 61.9879L12.6299 60.8366C13.264 60.1916 14.4107 59.1379 15.1626 58.4929L15.155 58.4666ZM104.646 60.1279C105.614 59.6404 107.118 57.3941 107.673 55.6166C107.832 54.9904 108.147 54.4054 108.603 53.9179C110.065 52.3166 111.272 49.4066 111.291 47.4154C111.291 44.3104 109.51 43.1179 106.921 44.4454C106.583 44.6029 106.309 44.7191 106.268 44.6816C106.131 44.5466 106.86 43.8416 107.752 43.2941C108.918 42.5329 109.138 42.0829 109.138 40.4629C109.155 39.1534 108.761 37.8709 108.01 36.7916C107.654 36.2629 107.517 35.9141 107.574 35.6966L107.931 34.3879C108.424 32.6479 108.246 30.6566 107.475 29.3891C106.328 27.4766 104.923 26.5391 102.964 26.3816L101.817 26.3029L102.489 27.0454C104.487 29.1754 105.455 31.8491 105.06 34.1366C104.863 35.3104 104.684 35.5429 103.537 35.9929L102.865 36.2666L102.945 37.1666C103.082 38.6329 102.827 39.7054 101.878 41.6779C101.403 42.6754 101.047 43.5716 101.088 43.6691C101.206 44.0029 102.512 44.6254 103.541 44.8804L104.551 45.1166L103.917 45.3304C103.086 45.5854 102.907 45.9566 102.907 47.3029C102.907 48.5329 103.086 49.0429 103.993 50.3891C104.407 50.9741 104.684 51.5816 104.726 51.9304C104.806 52.4779 104.787 52.5154 104.331 52.6729C103.815 52.816 103.283 52.9015 102.748 52.9279C100.887 53.0441 100.75 53.1041 99.9187 53.8841C99.1669 54.5891 99.1479 54.6266 99.1479 55.4066C99.1479 56.4791 99.5618 58.6504 99.82 58.9429C100.158 59.2954 102.034 60.2141 102.767 60.3491C103.399 60.5058 104.067 60.4298 104.646 60.1354V60.1279ZM77.2536 58.6654C78.4611 57.7279 79.4103 56.7904 79.9419 55.9879C80.2799 55.5004 80.2989 55.4029 80.1394 54.9904C79.8622 54.3641 78.0434 52.7441 77.0333 52.2566C76.3603 51.9588 75.6484 51.7556 74.9183 51.6529L73.6728 51.4954L72.902 50.5391C71.2996 48.5854 70.4111 47.0629 69.1428 44.1116C68.0341 41.6104 67.0658 40.1479 65.5242 38.7004C64.89 38.1154 64.4382 37.6279 64.4762 37.6279C64.5559 37.6279 65.3077 37.9991 66.1773 38.4491C67.6202 39.2104 67.7987 39.2704 68.4518 39.1729C70.806 38.8991 72.883 36.2254 73.6349 32.4754C73.8513 31.4216 74.288 30.3454 74.7436 29.7004C74.7626 29.6816 75.6739 30.2666 76.7409 31.0279C79.4521 32.9216 80.0445 33.2141 81.5861 33.2741C82.5962 33.3116 83.1695 33.2366 84.9884 32.8054C88.8652 31.8679 93.0573 31.4966 95.609 31.8304C97.0519 32.0254 99.1289 32.6516 100.671 33.3716C102.193 34.0766 102.489 34.1141 102.983 33.6829C103.397 33.3304 103.397 33.2741 103.397 31.9654C103.378 30.0304 102.664 27.9416 101.578 26.6929C101.024 26.0479 99.4631 24.9941 97.9176 24.1916C97.3683 23.9038 96.8215 23.6113 96.2773 23.3141C95.5444 22.8829 94.7167 22.9429 92.4611 23.5279C89.8487 24.1916 89.1576 24.1916 86.1731 23.4304C83.6404 22.8041 83.4847 22.7854 80.99 23.1754C79.6647 23.3704 76.3422 23.2541 75.2335 22.9616C74.6791 22.8041 74.1247 22.6504 73.5931 22.4554C72.6248 22.0841 70.9427 22.0241 69.42 22.2979C66.3937 22.8266 64.1002 24.4466 63.2687 26.6516C62.832 27.7654 62.8927 28.2941 63.4661 28.6429C64.3774 29.2091 65.5811 30.7541 65.5811 31.3579C65.5811 31.3954 65.2849 31.1441 64.947 30.7916C64.0964 29.9141 63.3256 29.5204 62.4143 29.5204C61.8247 29.5365 61.2513 29.715 60.7589 30.0357C60.2665 30.3564 59.8745 30.8065 59.6272 31.3354C59.3611 32.0254 59.1367 32.7304 58.9551 33.4466C58.4007 35.4379 57.9071 36.4954 56.8591 37.9016C55.9288 39.1729 55.7921 39.7391 56.1262 41.1641C56.9578 44.7566 58.4007 46.2041 64.4306 49.5829C67.5936 51.3604 69.215 52.3579 70.4035 53.2354C71.3148 53.8991 71.3338 53.9404 71.2541 54.4466C71.0756 55.6204 71.8274 56.8879 73.3121 57.9229C73.688 58.1779 73.9235 58.4516 73.9235 58.6466C73.9235 58.9991 74.9335 59.4866 75.6626 59.4866C76.0764 59.4866 76.3954 59.3104 77.246 58.6654H77.2536ZM101.639 52.0804C103.932 52.1591 104.05 51.9829 102.827 50.5766C101.54 49.1104 101.187 47.9216 101.662 46.6129L101.859 46.1066L101.047 45.7166C100.769 45.5816 100.492 45.4429 100.215 45.3454C100.078 45.8741 99.9377 46.3804 99.82 46.9091C99.5238 48.1016 99.1669 51.1879 99.1479 52.4966C99.1479 52.6129 99.3454 52.5754 99.6833 52.3616C100.158 52.0879 100.397 52.0504 101.643 52.0879L101.639 52.0804ZM93.9458 51.9641C95.3318 51.8854 96.7557 51.7879 97.1316 51.7279L97.8227 51.6304L97.9025 49.3841C98.0202 46.1816 98.4948 44.2879 99.8998 41.2579C100.887 39.1091 101.324 37.2341 101.107 35.8279C101.028 35.2241 100.99 35.1829 100.158 34.8304C98.6353 34.2332 97.0495 33.8068 95.4305 33.5591C93.8699 33.3454 89.2791 33.4616 87.559 33.7954C86.8452 33.9116 85.5427 34.1854 84.6732 34.3991C82.5164 34.8866 81.3697 34.8304 79.7293 34.1254C78.1079 33.4204 77.0789 32.7791 76.1106 31.8791C75.3398 31.1741 75.2601 31.1366 75.0626 31.3729C74.9031 31.5491 74.8234 32.0779 74.7664 33.2104C74.7057 34.9504 74.4285 35.8654 73.6577 37.0954C73.4864 37.3484 73.3402 37.6171 73.221 37.8979C73.221 37.9579 73.8133 38.6404 74.5462 39.3829C77.0789 41.9816 78.3244 42.6454 80.3217 42.5066C80.9748 42.4466 81.4304 42.4691 81.4304 42.5441C81.4304 42.7016 80.1432 43.6954 79.6116 43.9691C79.3534 44.1041 79.2964 44.2429 79.3344 44.5354L79.6496 46.5866C79.828 47.7604 79.9647 48.3041 80.1432 48.4616C80.6178 48.8516 83.0708 50.1041 84.6124 50.7266C86.6287 51.5291 87.7375 51.8216 89.2791 51.9566C91.1777 52.1141 91.2157 52.1141 93.9458 51.9566V51.9641ZM77.5915 49.8154C77.6295 49.7554 77.4928 48.6229 77.2346 47.3141C76.9194 45.5366 76.7409 44.8916 76.5435 44.7154C76.4068 44.5991 75.674 44.0891 74.9411 43.5641C73.9782 42.8803 73.0659 42.1297 72.2109 41.3179L70.8478 39.9904L70.1149 40.3616L69.3441 40.7704C69.409 41.0755 69.515 41.3706 69.6593 41.6479C69.8757 42.1166 70.3124 43.2679 70.6275 44.2054C71.4591 46.6466 72.1122 47.8204 73.7526 49.9466L74.3639 50.7491L75.5296 50.9254C76.1828 51.0229 76.8359 51.1616 77.0143 51.2179C77.2915 51.3341 77.3295 51.2779 77.4092 50.6516C77.4472 50.3779 77.508 50.0854 77.5877 49.8116L77.5915 49.8154ZM102.649 25.5191C103.659 25.4216 103.837 25.2829 103.401 24.8366C103.124 24.5629 102.489 24.5441 101.977 24.7766C101.639 24.9341 101.563 24.8929 101.028 24.3266C100.473 23.7229 100.435 23.7004 99.7403 23.7791C99.1062 23.8579 99.0074 23.8391 98.9277 23.5841C98.6807 23.1652 98.3738 22.7838 98.0164 22.4516C97.5672 21.9476 97.0057 21.5535 96.376 21.3004C95.1495 20.8316 94.4584 20.8916 93.2889 21.5366C89.9057 23.3516 90.0462 23.3329 86.7806 22.5116C83.7353 21.7504 81.4608 20.9704 80.728 20.4791C80.1166 20.0704 78.8104 19.6204 77.7206 19.4816C76.908 19.3654 76.3954 19.5416 75.6246 20.1641L75.2107 20.4979L75.5866 21.1429C76.0992 22.0429 76.0423 22.0991 75.2714 21.4354C74.4399 20.7529 73.4526 20.2841 72.8185 20.2616C72.3628 20.2616 71.0186 20.8466 70.8592 21.1016C70.7984 21.1804 71.2161 21.2779 71.7705 21.3154C72.3438 21.3754 73.1337 21.5704 73.669 21.7841C75.055 22.3691 75.7651 22.5641 77.0295 22.6841C78.4155 22.8191 80.9254 22.6654 81.2216 22.4291C81.3811 22.2941 81.8139 22.2716 82.7253 22.3504C83.9327 22.4291 84.4264 22.5454 87.2932 23.3066C88.9564 23.7566 90.1221 23.7154 92.1004 23.1904C93.0117 22.9354 94.1585 22.6841 94.6331 22.6241C95.4457 22.5454 95.6014 22.5866 96.8696 23.1529C98.8859 24.0529 99.9567 24.6191 100.549 25.1441C101.141 25.6504 101.221 25.6504 102.645 25.5341L102.649 25.5191ZM91.3752 22.1029L92.5827 21.4766L92.5447 20.2654C92.5257 19.4254 92.4839 18.6041 92.446 17.7866L92.3472 16.5379L91.1397 17.4566C90.4259 18.0041 89.7348 18.4129 89.4386 18.4729C88.5691 18.6304 84.2783 18.4729 83.8796 18.2591C83.3484 17.8716 82.8517 17.44 82.3949 16.9691L81.2861 15.8554L81.2671 16.5191C81.2671 16.8716 81.2292 17.4754 81.1494 17.8466C81.0507 18.5516 81.0507 18.5704 81.8215 19.5266C82.2354 20.0554 82.5734 20.5241 82.5734 20.5804C82.5734 20.9516 88.2881 22.7104 89.5753 22.7291C89.9892 22.7291 90.5056 22.5529 91.3752 22.1029ZM89.0817 17.6666C90.5056 17.3929 91.1967 16.3766 91.7321 13.8004C92.2865 11.0254 92.5637 6.67161 92.3055 4.81536C92.0662 3.13536 90.1677 2.39286 86.549 2.50911C84.2935 2.58786 83.3632 2.80161 82.5924 3.44661C82.1177 3.83661 82.1177 3.87786 81.9013 5.73036C81.5064 9.28536 82.0987 14.3441 83.1278 16.2379C83.6214 17.1566 84.0581 17.4866 84.9656 17.6441C85.9946 17.8204 88.1894 17.8204 89.0779 17.6629L89.0817 17.6666Z" fill="black"/>
        </g>
        <defs>
        <clipPath id="clip0_319_478">
        <rect width="121.509" height="120" fill="white" transform="translate(0.361267 0.675415)"/>
        </clipPath>
        </defs>
    </g>

    <g id="bootstrap">
        <g id="logos:bootstrap" clip-path="url(#clip0_319_454)">
        <path id="Vector" d="M0.868408 76.4575C0.868408 82.6535 6.01257 87.6754 12.3579 87.6754H78.485C84.8314 87.6754 89.9749 82.6529 89.9749 76.4575V11.8937C89.9749 5.69729 84.8307 0.675415 78.4854 0.675415H12.3583C6.01187 0.675415 0.868408 5.69797 0.868408 11.8933V76.4572V76.4575Z" fill="#563D7C"/>
        <path id="Vector_2" d="M37.819 39.1586V26.8383H48.9264C49.9845 26.8383 51.0044 26.9243 51.9866 27.0966C52.9689 27.2685 53.838 27.5757 54.5937 28.0186C55.349 28.4614 55.9536 29.0762 56.4071 29.8629C56.8603 30.65 57.0873 31.6583 57.0873 32.8875C57.0873 35.1009 56.4071 36.6995 55.0469 37.683C53.687 38.6669 51.949 39.1586 49.8331 39.1586H37.819ZM25.9557 17.8375V70.5133H52.1001C54.5182 70.5133 56.8732 70.2183 59.1653 69.628C61.4573 69.0377 63.4974 68.1279 65.2858 66.8984C67.0738 65.6688 68.4971 64.0824 69.5549 62.1399C70.613 60.197 71.1417 57.8976 71.1417 55.2417C71.1417 51.9463 70.3231 49.1307 68.6861 46.7946C67.0487 44.4582 64.5677 42.8228 61.2429 41.8883C63.661 40.7573 65.4873 39.3061 66.7216 37.5355C67.9555 35.765 68.5726 33.5519 68.5726 30.8957C68.5726 28.4366 68.157 26.371 67.3258 24.6986C66.4946 23.0266 65.3234 21.6863 63.812 20.6779C62.301 19.6696 60.4876 18.9441 58.3717 18.5016C56.2561 18.0588 53.9136 17.8375 51.3444 17.8375H25.9557ZM37.819 61.5125V47.0525H50.7398C53.309 47.0525 55.3744 47.6303 56.9362 48.7864C58.4977 49.9422 59.2787 51.8725 59.2787 54.5777C59.2787 55.9551 59.0393 57.0861 58.5607 57.9714C58.0821 58.8567 57.4399 59.5578 56.6337 60.074C55.8279 60.5905 54.8958 60.9593 53.838 61.1809C52.7799 61.4018 51.672 61.5125 50.5132 61.5125H37.819Z" fill="white"/>
        </g>
        <defs>
        <clipPath id="clip0_319_454">
        <rect width="89.1065" height="87" fill="white" transform="translate(0.868408 0.675415)"/>
        </clipPath>
        </defs>
    </g>

    <g id="git">
        <g id="logos:git-icon" clip-path="url(#clip0_319_448)">
        <path id="Vector" d="M105.048 48.4973L58.6281 2.65579C55.9564 0.0156152 51.6205 0.0156152 48.9455 2.65579L39.306 12.1755L51.5341 24.2517C54.3757 23.3035 57.6342 23.9396 59.8993 26.1766C62.1753 28.428 62.8148 31.6735 61.8314 34.4888L73.6159 46.1274C76.467 45.1574 79.7567 45.785 82.0339 48.0375C85.2164 51.1793 85.2164 56.2714 82.0339 59.4153C78.8505 62.5595 73.6944 62.5595 70.5094 59.4153C68.1155 57.0487 67.5241 53.5767 68.736 50.6642L57.7459 39.8106L57.7447 68.3727C58.5414 68.7617 59.269 69.2756 59.8993 69.8943C63.0819 73.0361 63.0819 78.1287 59.8993 81.275C56.716 84.4176 51.5574 84.4176 48.3786 81.275C45.196 78.1287 45.196 73.0366 48.3786 69.8948C49.1412 69.1412 50.0476 68.5444 51.0453 68.1389V39.3106C50.0462 38.9078 49.1393 38.3107 48.3786 37.5548C45.9672 35.1767 45.3875 31.6826 46.623 28.7585L34.569 16.8529L2.73936 48.2853C0.0647439 50.9279 0.0647439 55.2104 2.73936 57.8509L49.1606 103.693C51.8331 106.334 56.1682 106.334 58.844 103.693L105.048 58.0638C107.722 55.4224 107.722 51.1375 105.048 48.4973" fill="#DE4C36"/>
        </g>
        <defs>
        <clipPath id="clip0_319_448">
        <rect width="106.32" height="105" fill="white" transform="translate(0.733398 0.675415)"/>
        </clipPath>
        </defs>
    </g>

    <g id="react">
        <g id="logos:react" clip-path="url(#clip0_319_450)">
        <path id="Vector" d="M94.5607 33.3782C93.3431 32.9641 92.1152 32.5805 90.8781 32.2278C91.0859 31.3861 91.2772 30.5546 91.4471 29.7378C94.2349 16.3238 92.4124 5.51726 86.1873 1.95922C80.2187 -1.45174 70.4575 2.10496 60.5994 10.6089C59.6278 11.4485 58.6778 12.3123 57.7502 13.1995C57.1293 12.6095 56.4974 12.031 55.8549 11.4643C45.523 2.37164 35.167 -1.4606 28.9485 2.10762C22.9853 5.52922 21.2195 15.6881 23.7294 28.4008C23.9791 29.6599 24.2611 30.9125 24.575 32.1573C23.1091 32.5702 21.6946 33.0096 20.3409 33.4774C8.22758 37.6636 0.491852 44.2237 0.491852 51.0284C0.491852 58.0563 8.7965 65.1055 21.413 69.3798C22.4359 69.7249 23.4672 70.0447 24.5062 70.3389C24.1687 71.6796 23.8692 73.0295 23.6079 74.3868C21.215 86.879 23.0836 96.7978 29.0308 100.198C35.1732 103.709 45.4828 100.1 55.521 91.4023C56.335 90.6951 57.1311 89.968 57.9085 89.2215C58.9129 90.1821 59.9442 91.1148 61.0011 92.0184C70.7252 100.312 80.3286 103.661 86.27 100.252C92.4066 96.7304 94.4012 86.075 91.8117 73.1111C91.6077 72.0954 91.379 71.0848 91.1257 70.0802C91.8497 69.8675 92.5603 69.6487 93.2531 69.421C106.369 65.1139 114.903 58.1502 114.903 51.0284C114.903 44.1989 106.918 37.5945 94.5607 33.3782ZM91.7161 64.8229C91.0904 65.028 90.4486 65.226 89.7943 65.4187C88.3463 60.875 86.3924 56.0438 84.0009 51.0519C86.2829 46.1791 88.1618 41.4095 89.5691 36.8955C90.7396 37.2313 91.8752 37.5852 92.9702 37.9586C103.558 41.5716 110.016 46.9126 110.016 51.0284C110.016 55.4121 103.041 61.1031 91.7161 64.8229ZM87.0172 74.052C88.1622 79.7841 88.3253 84.967 87.5669 89.019C86.8858 92.6599 85.5155 95.087 83.8208 96.0593C80.2155 98.1281 72.5048 95.4392 64.189 88.3461C63.2059 87.5059 62.2466 86.6388 61.3122 85.7458C64.5363 82.2511 67.7581 78.1885 70.9026 73.6763C76.4337 73.1899 81.6591 72.3943 86.3978 71.3086C86.626 72.2181 86.8326 73.1328 87.0172 74.052ZM39.4972 95.7018C35.9746 96.9347 33.1688 96.9701 31.4727 96.0009C27.8639 93.9379 26.3636 85.9735 28.41 75.2905C28.6533 74.0282 28.9318 72.7727 29.2453 71.5256C33.9317 72.5533 39.1191 73.2922 44.6631 73.7379C47.8291 78.1531 51.1439 82.2113 54.4846 85.7649C53.7747 86.4458 53.0479 87.1093 52.305 87.7547C47.8657 91.6007 43.4175 94.3295 39.4972 95.7018ZM22.9942 64.7958C17.4153 62.9056 12.8081 60.4493 9.65012 57.7688C6.81218 55.3603 5.37981 52.9687 5.37981 51.0284C5.37981 46.8989 11.5906 41.6318 21.9498 38.0521C23.207 37.618 24.5227 37.2082 25.888 36.8237C27.32 41.4396 29.1979 46.2659 31.4642 51.1462C29.1684 56.0988 27.2637 61.0021 25.8179 65.6725C24.8696 65.4033 23.9281 65.1109 22.9942 64.7958ZM28.5262 27.4701C26.3761 16.5785 27.804 8.36253 31.3977 6.30045C35.2251 4.10414 43.6888 7.23559 52.6098 15.087C53.1915 15.6002 53.7638 16.1237 54.3264 16.6574C51.0022 20.1955 47.7178 24.2235 44.58 28.6126C39.1991 29.107 34.0483 29.9008 29.3128 30.9644C29.021 29.8065 28.7587 28.6415 28.5262 27.4706V27.4701ZM77.8781 39.5494C76.7596 37.6343 75.5996 35.7434 74.3989 33.8779C78.0493 34.3355 81.5469 34.9428 84.8313 35.6852C83.8454 38.818 82.6164 42.093 81.1697 45.4508C80.1123 43.4621 79.0149 41.4946 77.8781 39.5494ZM57.7525 20.1197C60.0067 22.5406 62.2646 25.2433 64.4853 28.1758C59.9804 27.9649 55.4679 27.964 50.9629 28.1732C53.1859 25.2676 55.4629 22.5685 57.7525 20.1197ZM37.4977 39.5826C36.3751 41.5122 35.2982 43.4674 34.2678 45.4468C32.8448 42.101 31.6269 38.8109 30.6325 35.6339C33.8968 34.91 37.3779 34.3182 41.0051 33.869C39.791 35.7459 38.6215 37.6508 37.4977 39.5822V39.5826ZM41.1092 68.5324C37.3618 68.1178 33.8284 67.5565 30.565 66.8522C31.5751 63.6184 32.8198 60.2584 34.2736 56.8408C35.3081 58.8216 36.3895 60.7781 37.5169 62.7085C38.6762 64.6931 39.8766 66.6369 41.1092 68.5324ZM57.8875 82.2781C55.5706 79.801 53.2601 77.0603 51.0036 74.1126C53.1944 74.1977 55.4276 74.2411 57.6975 74.2411C60.0295 74.2411 62.3347 74.1893 64.6038 74.0892C62.3759 77.0899 60.1265 79.8347 57.8875 82.2781ZM81.2157 56.6662C82.7451 60.1215 84.034 63.4638 85.0575 66.6422C81.7404 67.3926 78.1588 67.9968 74.385 68.4456C75.5943 66.5454 76.7653 64.6216 77.8974 62.6753C79.0483 60.6969 80.1547 58.6934 81.2157 56.6662ZM73.6637 60.2548C71.9306 63.2389 70.1001 66.1664 68.1751 69.0325C64.688 69.2773 61.1933 69.3989 57.6975 69.3971C54.1369 69.3971 50.6737 69.2872 47.3388 69.0728C45.3635 66.2133 43.4981 63.2807 41.7465 60.2814H41.747C40.0036 57.298 38.3752 54.25 36.8653 51.144C38.3714 48.0373 39.9948 44.9879 41.7322 42.0022L41.7318 42.0026C43.4685 39.0161 45.319 36.0961 47.2794 33.2488C50.6818 32.9937 54.1709 32.8608 57.6971 32.8608H57.6975C61.2398 32.8608 64.7334 32.995 68.1349 33.2519C70.0754 36.0949 71.9141 39.0049 73.6476 41.9765C75.3908 44.9556 77.0357 47.9902 78.5798 51.0753C77.0516 54.192 75.4118 57.2538 73.6637 60.2548ZM83.7462 6.15604C87.5772 8.34614 89.0672 17.1779 86.6601 28.7597C86.5064 29.4986 86.3339 30.2512 86.1461 31.0144C81.399 29.9282 76.2447 29.1207 70.8481 28.6188C67.7045 24.1814 64.4469 20.1472 61.1768 16.6547C62.0338 15.8359 62.9112 15.0383 63.8082 14.2626C72.255 6.97689 80.1494 4.10016 83.7462 6.15604ZM57.6975 40.9018C63.3399 40.9018 67.9141 45.4357 67.9141 51.0284C67.9141 56.621 63.3399 61.155 57.6975 61.155C52.0552 61.155 47.4809 56.621 47.4809 51.0284C47.4809 45.4357 52.0552 40.9018 57.6975 40.9018Z" fill="#00D8FF"/>
        </g>
        <defs>
        <clipPath id="clip0_319_450">
        <rect width="114.421" height="101" fill="white" transform="translate(0.487061 0.675415)"/>
        </clipPath>
        </defs>
    </g>

    <g id="sass">
            <g id="logos:sass" clip-path="url(#clip0_319_452)">
        <path id="Vector" d="M102.894 50.7521C98.7724 50.773 95.1902 51.7449 92.1911 53.1818C91.0902 51.0476 89.9898 49.1462 89.7959 47.7515C89.5798 46.1248 89.3211 45.1316 89.5798 43.1876C89.8389 41.2437 91.0042 38.4756 90.9824 38.2644C90.9611 38.0533 90.7233 37.06 88.3498 37.0392C85.9763 37.0179 83.9263 37.4828 83.6889 38.0954C83.4515 38.7081 82.9985 40.1028 82.6963 41.5392C82.2863 43.6526 77.9494 51.1953 75.4681 55.1465C74.6694 53.6045 73.979 52.252 73.8276 51.1744C73.612 49.5477 73.3528 48.5545 73.612 46.6106C73.8711 44.6666 75.0363 41.899 75.0146 41.6874C74.9928 41.4762 74.7554 40.4829 72.382 40.4621C70.008 40.4408 67.958 40.9057 67.7211 41.5183C67.4837 42.1314 67.2246 43.5678 66.7285 44.9625C66.232 46.3573 60.4707 58.9505 58.9603 62.2039C58.3499 63.5208 57.7096 64.8242 57.0398 66.1131C57.0398 66.1131 57.0181 66.1765 56.9533 66.2821C56.7429 66.6862 56.5272 67.0877 56.3064 67.4865V67.5073C55.9824 68.0783 55.6372 68.6061 55.4646 68.6061C55.335 68.6061 55.0976 67.085 55.5076 65.0142C56.3707 60.6407 58.4207 53.837 58.3994 53.6045C58.3994 53.4777 58.7876 52.2946 57.0616 51.6815C55.3781 51.0689 54.7742 52.0829 54.6229 52.0829C54.472 52.0829 54.3637 52.4423 54.3637 52.4423C54.3637 52.4423 56.2416 44.7935 50.782 44.7935C47.3729 44.7935 42.6685 48.4489 40.3381 51.7449C37.6889 53.1566 35.0419 54.5723 32.3972 55.9921C31.1246 56.6894 29.8081 57.3868 28.5781 58.0415C28.4916 57.9573 28.4055 57.8512 28.319 57.7669C21.7159 50.8577 9.5029 45.9766 10.0207 36.7012C10.2151 33.3204 11.4016 24.4459 33.4764 13.6702C51.645 4.90131 66.1029 7.33096 68.6059 12.7191C72.1876 20.4104 60.8594 34.6938 42.0859 36.7641C34.922 37.5462 31.1672 34.8415 30.2181 33.8274C29.2255 32.7708 29.0742 32.7073 28.7072 32.9189C28.1033 33.2361 28.4916 34.1868 28.7072 34.736C29.2685 36.1724 31.5772 38.7081 35.4829 39.9551C38.9355 41.0534 47.3294 41.6665 57.4929 37.8208C68.8646 33.5103 77.755 21.5301 75.1442 11.4938C72.5328 1.30938 55.2702 -2.05008 38.9355 3.63346C29.2255 7.01468 18.6951 12.3389 11.1212 19.2694C2.12289 27.5095 0.698534 34.6725 1.28114 37.6731C3.37464 48.322 18.3716 55.2525 24.3703 60.3869C24.0681 60.5559 23.7872 60.7041 23.5503 60.831C20.5507 62.2887 9.11419 68.1412 6.26593 74.3323C3.02943 81.3471 6.78422 86.3763 9.26551 87.0519C16.969 89.144 24.8881 85.3831 29.139 79.1708C33.3898 72.9589 32.872 64.8873 30.9085 61.1898C30.8868 61.1477 30.8655 61.1051 30.822 61.063C31.599 60.6194 32.3972 60.1545 33.1742 59.7108C34.6022 58.8843 36.0483 58.0881 37.5116 57.3229C36.7776 59.2881 36.2381 61.6335 35.9794 65.0142C35.6555 68.9868 37.3168 74.142 39.4963 76.1702C40.4677 77.0583 41.6111 77.0791 42.345 77.0791C44.8911 77.0791 46.0351 75.0083 47.3081 72.5574C48.8616 69.5573 50.2642 66.0709 50.2642 66.0709C50.2642 66.0709 48.5163 75.4945 53.2637 75.4945C54.9898 75.4945 56.7376 73.2969 57.5146 72.1772V72.1981C57.5146 72.1981 57.5576 72.1346 57.6442 71.9869C57.8168 71.7123 57.9246 71.5428 57.9246 71.5428V71.5012C58.615 70.3176 60.169 67.6342 62.4776 63.1759C65.4555 57.4289 68.3255 50.2451 68.3255 50.2451C68.3255 50.2451 68.5846 51.9987 69.4689 54.9145C69.9872 56.626 71.0654 58.5064 71.9289 60.3235C71.2385 61.2746 70.8068 61.8025 70.8068 61.8025L70.8285 61.8238C70.2672 62.542 69.6633 63.3236 68.9942 64.0849C66.642 66.8313 63.8372 69.98 63.4485 70.8881C62.995 71.9656 63.1033 72.7477 63.9668 73.3816C64.5924 73.8465 65.7141 73.9095 66.8581 73.8465C68.9729 73.6984 70.4616 73.1913 71.195 72.8746C72.339 72.4731 73.6768 71.86 74.9281 70.9515C77.2372 69.2822 78.6394 66.8947 78.5102 63.7468C78.4455 62.0141 77.8628 60.2813 77.1507 58.6542C77.3668 58.3587 77.5607 58.0628 77.7768 57.7669C81.4233 52.5479 84.2502 46.8217 84.2502 46.8217C84.2502 46.8217 84.5094 48.5753 85.3937 51.4916C85.8255 52.9706 86.7103 54.5765 87.4867 56.1398C84.0559 58.8658 81.9411 62.0349 81.1859 64.1057C79.8268 67.9514 80.8837 69.6837 82.8907 70.0851C83.7967 70.2755 85.0915 69.8527 86.0411 69.4512C87.2494 69.0711 88.6737 68.4163 90.0333 67.4439C92.3424 65.775 94.5646 63.4505 94.435 60.3026C94.3702 58.8658 93.982 57.4498 93.4424 56.0763C96.3554 54.8937 100.11 54.2385 104.9 54.7876C115.172 55.9708 117.2 62.2461 116.812 64.8878C116.423 67.5286 114.265 68.9655 113.554 69.4091C112.841 69.8531 112.604 70.0009 112.669 70.3176C112.755 70.7825 113.1 70.7617 113.705 70.6769C114.546 70.5292 119.099 68.5427 119.293 63.6829C119.617 57.4711 113.575 50.6887 102.894 50.7521ZM23.6581 76.9101C20.2485 80.5442 15.5016 81.9176 13.4516 80.7558C11.2507 79.5088 12.1138 74.142 16.2998 70.2968C18.8459 67.9514 22.1259 65.7746 24.3055 64.4437C24.8016 64.1478 25.5355 63.7255 26.4203 63.1972C26.5711 63.1125 26.6577 63.0703 26.6577 63.0703L27.1755 62.7531C28.7072 68.2468 27.2403 73.0857 23.6581 76.9101ZM48.4733 60.3869C47.2863 63.2185 44.8051 70.4658 43.2946 70.0643C41.9998 69.7263 41.2011 64.2326 43.0355 58.8023C43.9633 56.0763 45.9268 52.8224 47.0707 51.5551C48.9263 49.5264 50.9763 48.8499 51.4724 49.6746C52.0985 50.7521 49.2068 58.612 48.4733 60.3869ZM68.9511 69.9796C68.4546 70.2333 67.9803 70.4023 67.7642 70.2755C67.6133 70.1907 67.9803 69.8527 67.9803 69.8527C67.9803 69.8527 70.5481 67.1484 71.562 65.9227C72.1451 65.2045 72.835 64.3595 73.5689 63.4084V63.6829C73.5689 66.916 70.375 69.0923 68.9507 69.9796H68.9511ZM84.7463 66.4511C84.3794 66.1973 84.4441 65.3523 85.6741 62.711C86.1489 61.6756 87.2706 59.9433 89.1915 58.274C89.4072 58.9501 89.5585 59.6053 89.5368 60.2179C89.515 64.296 86.5376 65.8172 84.7463 66.4511Z" fill="#CD6799"/>
        </g>
        <defs>
        <clipPath id="clip0_319_452">
        <rect width="118.471" height="87" fill="white" transform="translate(0.954712 0.675415)"/>
        </clipPath>
        </defs>
    </g>

    <g id="redux">
        <path id="Vector" d="M73.8391 70.2381C77.7595 69.8373 80.7338 66.4996 80.5985 62.4939C80.4636 58.4885 77.0835 55.284 73.0278 55.284H72.7577C68.5663 55.4176 65.3219 58.8889 65.4572 63.0279C65.5925 65.0307 66.4034 66.7664 67.6201 67.968C63.0237 76.9139 55.9938 83.4561 45.4489 88.9303C38.2837 92.6689 30.8483 94.0041 23.413 93.0697C17.3292 92.2684 12.5975 89.5984 9.6229 85.1918C5.29705 78.6496 4.89161 71.573 8.54185 64.4967C11.1106 59.423 15.1659 55.6844 17.7347 53.8152C17.194 52.0795 16.3827 49.1422 15.9772 47.0061C-3.62563 61.0254 -1.59758 79.9848 4.35088 88.9303C8.81201 95.6066 17.87 99.7455 27.8741 99.7455C30.5778 99.7455 33.2814 99.4783 35.9855 98.8111C53.2901 95.473 66.4038 85.3254 73.8391 70.2381ZM97.6329 53.682C87.3582 41.7988 72.2169 35.2566 54.9123 35.2566H52.7494C51.5326 32.8533 48.9639 31.2508 46.1249 31.2508H45.8544C41.6638 31.3844 38.4194 34.8557 38.5543 38.9951C38.6896 43.0004 42.0692 46.2049 46.1249 46.2049H46.3951C49.3693 46.0713 51.9381 44.2021 53.0196 41.6652H55.453C65.7278 41.6652 75.4613 44.6025 84.2491 50.3439C91.0085 54.75 95.8755 60.4914 98.5791 67.434C100.877 73.0418 100.742 78.516 98.3086 83.1893C94.5234 90.2656 88.1695 94.1377 79.7876 94.1377C74.3799 94.1377 69.2427 92.5352 66.5387 91.3336C65.0517 92.6689 62.3477 94.8049 60.4549 96.1406C66.2685 98.8107 72.2169 100.28 77.8948 100.28C90.8732 100.28 100.472 93.2029 104.122 86.1266C108.043 78.3824 107.772 65.0307 97.6329 53.682ZM28.9556 72.5074C29.0909 76.5131 32.4705 79.7172 36.5262 79.7172H36.7968C40.9878 79.584 44.2322 76.1123 44.0969 71.9734C43.962 67.9676 40.5819 64.7635 36.5262 64.7635H36.2561C35.9855 64.7635 35.5796 64.7635 35.3099 64.8967C29.7669 55.8176 27.4687 45.9377 28.28 35.2562C28.8203 27.2451 31.5244 20.3021 36.2561 14.5607C40.1765 9.6205 47.7471 7.21722 52.8847 7.08402C67.2147 6.81681 73.298 24.441 73.7038 31.5176C75.4613 31.918 78.4356 32.8529 80.4636 33.5205C78.841 11.891 65.3219 0.675415 52.3439 0.675415C40.1765 0.675415 28.9556 9.3541 24.494 22.1717C18.2754 39.2619 22.3311 55.6844 29.9018 68.6357C29.2262 69.5701 28.8203 71.0389 28.9556 72.5078V72.5074Z" fill="#764ABC"/>
    </g>

    <g id="js">
        <g id="vscode-icons:file-type-js-official">
        <path id="Vector" d="M8.25226 8.17542H114.572V113.175H8.25226V8.17542Z" fill="#F5DE19"/>
        <path id="Vector_2" d="M79.6729 90.2067C80.5787 92.0239 81.9862 93.5513 83.7329 94.6129C85.4796 95.6745 87.4946 96.227 89.5454 96.2067C93.6843 96.2067 96.331 94.1629 96.331 91.3317C96.331 87.9567 93.6122 86.7492 89.0556 84.7804L86.5571 83.7229C79.3425 80.6892 74.5581 76.8904 74.5581 68.8579C74.5581 61.4592 80.2538 55.8229 89.1885 55.8229C92.0808 55.6166 94.9706 56.2559 97.4974 57.661C100.024 59.0661 102.076 61.1749 103.397 63.7242L95.5867 68.6554C95.078 67.3914 94.1922 66.3099 93.0468 65.5545C91.9014 64.799 90.5505 64.4053 89.1733 64.4254C88.5725 64.366 87.9657 64.4309 87.3916 64.6159C86.8175 64.8009 86.2888 65.1019 85.839 65.4999C85.3893 65.8978 85.0284 66.3839 84.7794 66.9272C84.5304 67.4705 84.3987 68.0591 84.3927 68.6554C84.3927 71.6142 86.2495 72.8142 90.5365 74.6554L93.035 75.7129C101.525 79.3092 106.325 82.9729 106.325 91.2117C106.325 100.095 99.2586 104.963 89.7695 104.963C86.0722 105.196 82.3858 104.367 79.155 102.576C75.9242 100.785 73.2872 98.1096 71.5621 94.8717L79.6729 90.2067ZM44.3783 91.0617C45.9466 93.8104 47.3743 96.1354 50.8069 96.1354C54.0877 96.1354 56.1609 94.8679 56.1609 89.9367V56.3854H66.1512V90.0679C66.1512 100.283 60.0758 104.933 51.2322 104.933C48.1062 105.102 45.0017 104.332 42.3267 102.726C39.6517 101.12 37.5315 98.7515 36.2448 95.9329L44.3783 91.0617Z" fill="black"/>
        </g>
    </g>
    
    <g id="tailwind">
        <g id="vscode-icons:file-type-tailwind">
        <path id="Vector" d="M37.307 56.7598C41.1759 41.4765 50.8481 33.8348 66.3236 33.8348C89.5368 33.8348 92.4385 51.0286 104.045 53.8942C111.783 55.8046 118.553 52.939 124.357 45.2973C120.488 60.5807 110.816 68.2223 95.3401 68.2223C72.1269 68.2223 69.2252 51.0286 57.6186 48.163C49.8809 46.2525 43.1103 49.1182 37.307 56.7598ZM8.29047 91.1473C12.1593 75.864 21.8315 68.2223 37.307 68.2223C60.5203 68.2223 63.4219 85.4161 75.0285 88.2817C82.7663 90.1921 89.5368 87.3265 95.3401 79.6848C91.4713 94.9682 81.7991 102.61 66.3236 102.61C43.1103 102.61 40.2087 85.4161 28.6021 82.5505C20.8643 80.64 14.0938 83.5057 8.29047 91.1473Z" fill="#44A8B3"/>
        </g>
    </g>

    <g id="vscode">
        <g id="vscode-icons:file-type-vscode">
        <path id="Vector" d="M102.989 18.2804L82.5546 8.5644C81.4006 8.0149 80.1021 7.83356 78.8391 8.04553C77.576 8.2575 76.411 8.85227 75.5056 9.7474L8.61247 69.9754C7.80086 70.7027 7.31504 71.7186 7.26187 72.7997C7.2087 73.8807 7.59254 74.9384 8.32895 75.7399C8.41755 75.8344 8.50615 75.9254 8.60184 76.0094L14.0632 80.9094C14.7768 81.5508 15.6954 81.9252 16.6594 81.9674C17.6234 82.0096 18.5719 81.717 19.3402 81.1404L99.9132 20.8004C100.522 20.3443 101.247 20.0651 102.008 19.9941C102.768 19.9231 103.534 20.0631 104.218 20.3985C104.903 20.7339 105.479 21.2513 105.881 21.8924C106.284 22.5335 106.498 23.2729 106.498 24.0274V23.7929C106.498 22.6411 106.169 21.5126 105.548 20.5374C104.927 19.5622 104.04 18.7799 102.989 18.2804Z" fill="#0065A9"/>
        <path id="Vector_2" d="M102.989 95.0704L82.5546 104.79C81.4003 105.338 80.1021 105.518 78.8395 105.306C77.5768 105.095 76.4119 104.501 75.5056 103.607L8.61247 43.3754C7.80086 42.6481 7.31504 41.6322 7.26187 40.5512C7.2087 39.4701 7.59254 38.4125 8.32895 37.6109C8.41755 37.5164 8.50615 37.4254 8.60184 37.3414L14.0632 32.4414C14.7775 31.7973 15.6982 31.4213 16.6646 31.3791C17.6309 31.3369 18.5817 31.6311 19.3508 32.2104L99.9132 92.5504C100.522 93.0065 101.247 93.2858 102.008 93.3568C102.768 93.4278 103.534 93.2877 104.218 92.9523C104.903 92.617 105.479 92.0996 105.881 91.4585C106.284 90.8173 106.498 90.0779 106.498 89.3234V89.5754C106.494 90.7242 106.163 91.8488 105.543 92.8205C104.922 93.7922 104.037 94.5719 102.989 95.0704Z" fill="#007ACC"/>
        <path id="Vector_3" d="M82.5546 104.79C81.4003 105.338 80.1021 105.518 78.8395 105.306C77.5768 105.095 76.4119 104.501 75.5056 103.607C76.0145 104.103 76.6604 104.44 77.3623 104.575C78.0641 104.71 78.7907 104.637 79.4511 104.367C80.1114 104.096 80.6761 103.638 81.0743 103.052C81.4726 102.465 81.6867 101.776 81.6899 101.069V12.2814C81.6905 11.572 81.4778 10.8783 81.0789 10.2882C80.6799 9.69818 80.1127 9.23836 79.4489 8.96699C78.7851 8.69563 78.0547 8.62494 77.3502 8.76388C76.6457 8.90281 75.9988 9.24513 75.4914 9.74745C76.397 8.85264 77.5618 8.25783 78.8246 8.04527C80.0874 7.83271 81.3859 8.01291 82.5405 8.56095L102.972 18.2629C104.026 18.7599 104.916 19.5412 105.54 20.5166C106.164 21.492 106.496 22.6217 106.498 23.7754V89.5754C106.498 90.7283 106.169 91.8577 105.547 92.8336C104.926 93.8095 104.038 94.5922 102.986 95.0914L82.5546 104.79Z" fill="#1F9CF0"/>
        </g>
    </g>

</svg>
